<svg version="1.1" id="Layer_1" xmlns="http://www.w3.org/2000/svg" xmlns:xlink="http://www.w3.org/1999/xlink" x="0px" y="0px"
	 width="100%" viewBox="0 0 512 512" enable-background="new 0 0 512 512" xml:space="preserve">
<path fill="#000000" opacity="1.000000" stroke="none" 
	d="
M513.000000,184.000000 
	C513.000000,293.973267 513.000000,403.446533 513.000000,512.959900 
	C342.401733,512.959900 171.803436,512.959900 1.102575,512.959900 
	C1.102575,342.443420 1.102575,171.886780 1.102575,1.165060 
	C171.666534,1.165060 342.333252,1.165060 513.000000,1.165060 
	C513.000000,61.863194 513.000000,122.681595 513.000000,184.000000 
M15.000332,294.500000 
	C15.332130,315.753601 15.085858,337.036896 16.174374,358.251678 
	C17.083256,375.965454 33.728752,388.866547 49.974564,388.928101 
	C101.295219,389.122559 152.617065,388.999725 203.938461,388.999634 
	C205.868240,388.999634 207.798035,388.999634 209.631744,388.999634 
	C209.631744,406.037231 209.631744,422.426025 209.631744,439.000305 
	C201.776306,439.000305 194.288269,438.993591 186.800262,439.002289 
	C179.999283,439.010162 176.971985,441.531372 177.000443,447.137939 
	C177.027176,452.405365 180.156525,454.995880 186.573013,454.996704 
	C233.562088,455.002747 280.551147,455.003357 327.540222,454.995972 
	C333.904175,454.994965 336.994690,452.364655 336.999664,447.026062 
	C337.004669,441.653259 333.933960,439.018616 327.587769,439.004456 
	C319.821625,438.987122 312.055450,439.000336 304.357605,439.000336 
	C304.357605,421.984436 304.357605,405.595856 304.357605,388.999634 
	C306.532379,388.999634 308.352905,388.999603 310.173462,388.999603 
	C360.994965,388.999695 411.816559,389.033112 462.637848,388.927795 
	C466.168365,388.920471 469.839966,388.328308 473.202087,387.248688 
	C490.608765,381.659241 498.826538,368.505249 498.879639,351.375214 
	C499.142944,266.395813 499.019348,181.415115 498.930420,96.434975 
	C498.926727,92.894600 498.210052,89.277092 497.313446,85.828667 
	C492.811432,68.513535 477.587341,59.011982 460.888062,59.009827 
	C325.086334,58.992313 189.284592,58.980923 53.482864,59.018402 
	C30.375349,59.024776 15.091428,74.803291 15.046196,97.545685 
	C14.916289,162.863556 15.000357,228.181870 15.000332,294.500000 
z"/>
<path fill="#2673FF" opacity="1.000000" stroke="none" 
	d="
M15.000332,294.000000 
	C15.000357,228.181870 14.916289,162.863556 15.046196,97.545685 
	C15.091428,74.803291 30.375349,59.024776 53.482864,59.018402 
	C189.284592,58.980923 325.086334,58.992313 460.888062,59.009827 
	C477.587341,59.011982 492.811432,68.513535 497.313446,85.828667 
	C498.210052,89.277092 498.926727,92.894600 498.930420,96.434975 
	C499.019348,181.415115 499.142944,266.395813 498.879639,351.375214 
	C498.826538,368.505249 490.608765,381.659241 473.202087,387.248688 
	C469.839966,388.328308 466.168365,388.920471 462.637848,388.927795 
	C411.816559,389.033112 360.994965,388.999695 310.173462,388.999603 
	C308.352905,388.999603 306.532379,388.999634 304.357605,388.999634 
	C304.357605,405.595856 304.357605,421.984436 304.357605,439.000336 
	C312.055450,439.000336 319.821625,438.987122 327.587769,439.004456 
	C333.933960,439.018616 337.004669,441.653259 336.999664,447.026062 
	C336.994690,452.364655 333.904175,454.994965 327.540222,454.995972 
	C280.551147,455.003357 233.562088,455.002747 186.573013,454.996704 
	C180.156525,454.995880 177.027176,452.405365 177.000443,447.137939 
	C176.971985,441.531372 179.999283,439.010162 186.800262,439.002289 
	C194.288269,438.993591 201.776306,439.000305 209.631744,439.000305 
	C209.631744,422.426025 209.631744,406.037231 209.631744,388.999634 
	C207.798035,388.999634 205.868240,388.999634 203.938461,388.999634 
	C152.617065,388.999725 101.295219,389.122559 49.974564,388.928101 
	C33.728752,388.866547 17.083256,375.965454 16.174374,358.251678 
	C15.085858,337.036896 15.332130,315.753601 15.000332,294.000000 
M389.500061,74.242874 
	C278.001526,74.243240 166.502960,74.236694 55.004410,74.251541 
	C38.556538,74.253731 30.402916,82.399765 30.397823,98.838730 
	C30.377378,164.837952 30.386549,230.837173 30.401794,296.836395 
	C30.402239,298.765076 30.592411,300.693695 30.691811,302.578552 
	C181.867599,302.578552 332.445129,302.578552 483.610992,302.578552 
	C483.610992,300.439270 483.611023,298.643250 483.610992,296.847260 
	C483.610901,230.848038 483.623840,164.848816 483.601532,98.849586 
	C483.595978,82.411827 475.430725,74.271523 458.999268,74.251053 
	C436.166229,74.222610 413.333160,74.243324 389.500061,74.242874 
M399.500244,317.419464 
	C276.601501,317.419464 153.702774,317.419464 30.648144,317.419464 
	C30.648144,330.567017 30.108120,342.901672 30.807129,355.165649 
	C31.446342,366.380585 40.580479,373.902435 52.251110,373.905273 
	C188.732773,373.938507 325.214447,373.940247 461.696106,373.904327 
	C474.503082,373.900940 483.257080,365.228180 483.533417,352.232513 
	C483.760071,341.572174 483.587433,330.903107 483.559052,320.238037 
	C483.556976,319.455780 483.289337,318.674286 483.057983,317.419556 
	C455.412476,317.419556 427.956360,317.419556 399.500244,317.419464 
M225.105957,393.779907 
	C225.105957,408.888702 225.105957,423.997528 225.105957,439.410675 
	C246.585327,439.410675 267.461517,439.410675 288.615784,439.410675 
	C288.615784,422.465485 288.615784,405.870117 288.615784,389.170563 
	C287.915405,388.963257 287.291809,388.618652 286.667419,388.617188 
	C267.177582,388.571838 247.687531,388.595886 228.197952,388.508728 
	C224.805862,388.493561 225.058105,390.642670 225.105957,393.779907 
z"/>
<path fill="#D3E2FF" opacity="1.000000" stroke="none" 
	d="
M390.000061,74.242935 
	C413.333160,74.243324 436.166229,74.222610 458.999268,74.251053 
	C475.430725,74.271523 483.595978,82.411827 483.601532,98.849586 
	C483.623840,164.848816 483.610901,230.848038 483.610992,296.847260 
	C483.611023,298.643250 483.610992,300.439270 483.610992,302.578552 
	C332.445129,302.578552 181.867599,302.578552 30.691811,302.578552 
	C30.592411,300.693695 30.402239,298.765076 30.401794,296.836395 
	C30.386549,230.837173 30.377378,164.837952 30.397823,98.838730 
	C30.402916,82.399765 38.556538,74.253731 55.004410,74.251541 
	C166.502960,74.236694 278.001526,74.243240 390.000061,74.242935 
M316.922485,232.717789 
	C308.352112,204.598450 285.496796,186.748444 257.544769,186.343781 
	C231.133759,185.961395 206.963470,203.178528 198.285294,228.821762 
	C192.910828,244.702881 195.344055,261.169891 195.376236,277.414764 
	C195.383438,281.043884 198.518295,283.313049 202.324615,283.318604 
	C238.801865,283.371918 275.279266,283.376862 311.756439,283.299713 
	C315.808411,283.291138 318.810272,280.721954 318.737671,276.843964 
	C318.467346,262.401855 317.672150,247.969589 316.922485,232.717789 
M235.028656,163.530121 
	C249.331085,173.031784 265.767273,173.049881 278.925781,163.578445 
	C291.490295,154.534576 297.291443,138.677673 293.452667,123.870720 
	C289.210022,107.505913 275.545074,96.424828 258.385498,95.434341 
	C242.940063,94.542801 227.772385,104.499557 221.985519,119.328949 
	C215.805344,135.166245 220.536957,151.775421 235.028656,163.530121 
z"/>
<path fill="#FCFDFF" opacity="1.000000" stroke="none" 
	d="
M400.000244,317.419495 
	C427.956360,317.419556 455.412476,317.419556 483.057983,317.419556 
	C483.289337,318.674286 483.556976,319.455780 483.559052,320.238037 
	C483.587433,330.903107 483.760071,341.572174 483.533417,352.232513 
	C483.257080,365.228180 474.503082,373.900940 461.696106,373.904327 
	C325.214447,373.940247 188.732773,373.938507 52.251110,373.905273 
	C40.580479,373.902435 31.446342,366.380585 30.807129,355.165649 
	C30.108120,342.901672 30.648144,330.567017 30.648144,317.419464 
	C153.702774,317.419464 276.601501,317.419464 400.000244,317.419495 
M246.469528,363.345032 
	C255.283218,367.139984 263.375275,366.047424 270.407837,359.430756 
	C276.718384,353.493469 278.490143,344.532806 275.268707,336.522125 
	C271.867981,328.065735 263.276459,322.555908 254.458359,323.176239 
	C245.426208,323.811584 237.543686,330.252045 235.277893,338.847717 
	C232.767517,348.371185 236.601791,357.190308 246.469528,363.345032 
z"/>
<path fill="#D2E2FF" opacity="1.000000" stroke="none" 
	d="
M225.106445,393.316589 
	C225.058105,390.642670 224.805862,388.493561 228.197952,388.508728 
	C247.687531,388.595886 267.177582,388.571838 286.667419,388.617188 
	C287.291809,388.618652 287.915405,388.963257 288.615784,389.170563 
	C288.615784,405.870117 288.615784,422.465485 288.615784,439.410675 
	C267.461517,439.410675 246.585327,439.410675 225.105957,439.410675 
	C225.105957,423.997528 225.105957,408.888702 225.106445,393.316589 
z"/>
<path fill="#2975FF" opacity="1.000000" stroke="none" 
	d="
M316.998230,233.125702 
	C317.672150,247.969589 318.467346,262.401855 318.737671,276.843964 
	C318.810272,280.721954 315.808411,283.291138 311.756439,283.299713 
	C275.279266,283.376862 238.801865,283.371918 202.324615,283.318604 
	C198.518295,283.313049 195.383438,281.043884 195.376236,277.414764 
	C195.344055,261.169891 192.910828,244.702881 198.285294,228.821762 
	C206.963470,203.178528 231.133759,185.961395 257.544769,186.343781 
	C285.496796,186.748444 308.352112,204.598450 316.998230,233.125702 
M209.808289,263.374207 
	C209.892258,265.126068 209.976227,266.877899 210.059143,268.608032 
	C241.661682,268.608032 272.703674,268.608032 304.135651,268.608032 
	C304.135651,261.180908 304.314270,254.051483 304.103119,246.933624 
	C303.386627,222.783157 284.952942,203.278763 260.998810,201.155884 
	C237.284470,199.054260 215.331436,215.300018 210.899033,239.037628 
	C209.481476,246.629333 210.113770,254.603806 209.808289,263.374207 
z"/>
<path fill="#2975FF" opacity="1.000000" stroke="none" 
	d="
M234.741318,163.313278 
	C220.536957,151.775421 215.805344,135.166245 221.985519,119.328949 
	C227.772385,104.499557 242.940063,94.542801 258.385498,95.434341 
	C275.545074,96.424828 289.210022,107.505913 293.452667,123.870720 
	C297.291443,138.677673 291.490295,154.534576 278.925781,163.578445 
	C265.767273,173.049881 249.331085,173.031784 234.741318,163.313278 
M258.286469,110.056007 
	C257.122528,110.071884 255.941483,109.964333 254.797379,110.123085 
	C245.215988,111.452553 238.398834,116.536972 235.261459,125.704269 
	C232.184952,134.693649 234.261703,142.907501 241.073303,149.503098 
	C247.889404,156.103043 256.116180,157.745499 265.061707,154.539566 
	C274.736542,151.072281 280.806213,141.256958 279.933807,130.982452 
	C279.011780,120.123375 271.355957,112.432030 258.286469,110.056007 
z"/>
<path fill="#2975FF" opacity="1.000000" stroke="none" 
	d="
M246.124268,363.173065 
	C236.601791,357.190308 232.767517,348.371185 235.277893,338.847717 
	C237.543686,330.252045 245.426208,323.811584 254.458359,323.176239 
	C263.276459,322.555908 271.867981,328.065735 275.268707,336.522125 
	C278.490143,344.532806 276.718384,353.493469 270.407837,359.430756 
	C263.375275,366.047424 255.283218,367.139984 246.124268,363.173065 
M261.971069,342.859802 
	C259.207672,337.567505 254.009369,336.033966 251.133759,340.060699 
	C249.858826,341.845978 249.326965,345.380524 250.262863,347.184570 
	C251.206436,349.003326 254.425140,350.680756 256.580383,350.601715 
	C260.323334,350.464447 262.271027,347.594208 261.971069,342.859802 
z"/>
<path fill="#FEFEFF" opacity="1.000000" stroke="none" 
	d="
M209.808228,262.888672 
	C210.113770,254.603806 209.481476,246.629333 210.899033,239.037628 
	C215.331436,215.300018 237.284470,199.054260 260.998810,201.155884 
	C284.952942,203.278763 303.386627,222.783157 304.103119,246.933624 
	C304.314270,254.051483 304.135651,261.180908 304.135651,268.608032 
	C272.703674,268.608032 241.661682,268.608032 210.059143,268.608032 
	C209.976227,266.877899 209.892258,265.126068 209.808228,262.888672 
z"/>
<path fill="#FDFEFF" opacity="1.000000" stroke="none" 
	d="
M258.716431,110.077316 
	C271.355957,112.432030 279.011780,120.123375 279.933807,130.982452 
	C280.806213,141.256958 274.736542,151.072281 265.061707,154.539566 
	C256.116180,157.745499 247.889404,156.103043 241.073303,149.503098 
	C234.261703,142.907501 232.184952,134.693649 235.261459,125.704269 
	C238.398834,116.536972 245.215988,111.452553 254.797379,110.123085 
	C255.941483,109.964333 257.122528,110.071884 258.716431,110.077316 
z"/>
<path fill="#CCDEFF" opacity="1.000000" stroke="none" 
	d="
M262.021423,343.256714 
	C262.271027,347.594208 260.323334,350.464447 256.580383,350.601715 
	C254.425140,350.680756 251.206436,349.003326 250.262863,347.184570 
	C249.326965,345.380524 249.858826,341.845978 251.133759,340.060699 
	C254.009369,336.033966 259.207672,337.567505 262.021423,343.256714 
z"/>
</svg>